<svg width="13" height="14" viewBox="0 0 13 14" fill="none" xmlns="http://www.w3.org/2000/svg">
<path d="M11.7587 2.42199C12.0842 2.09656 12.0842 1.56892 11.7587 1.24348C11.4333 0.918044 10.9057 0.918044 10.5802 1.24348L6.0026 5.8211L1.42222 1.24072C1.09679 0.915284 0.569148 0.915284 0.243711 1.24072C-0.0817257 1.56616 -0.0817252 2.0938 0.243711 2.41923L4.82409 6.99961L0.243711 11.58C-0.0817251 11.9054 -0.0817257 12.4331 0.243711 12.7585C0.569148 13.0839 1.09679 13.0839 1.42222 12.7585L6.0026 8.17812L10.5802 12.7557C10.9057 13.0812 11.4333 13.0812 11.7587 12.7557C12.0842 12.4303 12.0842 11.9027 11.7587 11.5772L7.18111 6.99961L11.7587 2.42199Z" fill="#75808A"/>
</svg>
